<svg xmlns="http://www.w3.org/2000/svg" viewBox="0 0 1024 1024" width="1024" height="1024" role="img" aria-label="loop">
  <title>loop</title>
  <!--
    loop, as the marketing site sets it, in the web UI's colours.

    SF Mono 700, -0.055 em tracking, outlines baked to paths.
    Colours are the web UI's own light theme, read from apps/web/src/index.css:
    plate is background, edge is border, ink is foreground, caret is primary.
    The plate is a superellipse, so the corners have continuous curvature like
    every other icon in the dock rather than a rounded rectangle's kink.
    Hand-maintained: edit this file, then run branding/install-icon.sh.
  -->
  <path d="M1024.00,512.00L1023.94,628.21L1023.75,665.32L1023.44,692.28L1023.01,714.20L1022.46,733.00L1021.78,749.62L1020.97,764.60L1020.04,778.30L1018.99,790.95L1017.81,802.74L1016.50,813.78L1015.06,824.18L1013.50,834.01L1011.81,843.33L1009.99,852.20L1008.04,860.66L1005.96,868.74L1003.74,876.47L1001.39,883.88L998.90,890.99L996.28,897.81L993.52,904.36L990.61,910.67L987.56,916.73L984.37,922.56L981.03,928.18L977.54,933.59L973.90,938.79L970.10,943.80L966.14,948.62L962.01,953.26L957.72,957.72L953.26,962.01L948.62,966.14L943.80,970.10L938.79,973.90L933.59,977.54L928.18,981.03L922.56,984.37L916.73,987.56L910.67,990.61L904.36,993.52L897.81,996.28L890.99,998.90L883.88,1001.39L876.47,1003.74L868.74,1005.96L860.66,1008.04L852.20,1009.99L843.33,1011.81L834.01,1013.50L824.18,1015.06L813.78,1016.50L802.74,1017.81L790.95,1018.99L778.30,1020.04L764.60,1020.97L749.62,1021.78L733.00,1022.46L714.20,1023.01L692.28,1023.44L665.32,1023.75L628.21,1023.94L512.00,1024.00L395.79,1023.94L358.68,1023.75L331.72,1023.44L309.80,1023.01L291.00,1022.46L274.38,1021.78L259.40,1020.97L245.70,1020.04L233.05,1018.99L221.26,1017.81L210.22,1016.50L199.82,1015.06L189.99,1013.50L180.67,1011.81L171.80,1009.99L163.34,1008.04L155.26,1005.96L147.53,1003.74L140.12,1001.39L133.01,998.90L126.19,996.28L119.64,993.52L113.33,990.61L107.27,987.56L101.44,984.37L95.82,981.03L90.41,977.54L85.21,973.90L80.20,970.10L75.38,966.14L70.74,962.01L66.28,957.72L61.99,953.26L57.86,948.62L53.90,943.80L50.10,938.79L46.46,933.59L42.97,928.18L39.63,922.56L36.44,916.73L33.39,910.67L30.48,904.36L27.72,897.81L25.10,890.99L22.61,883.88L20.26,876.47L18.04,868.74L15.96,860.66L14.01,852.20L12.19,843.33L10.50,834.01L8.94,824.18L7.50,813.78L6.19,802.74L5.01,790.95L3.96,778.30L3.03,764.60L2.22,749.62L1.54,733.00L0.99,714.20L0.56,692.28L0.25,665.32L0.06,628.21L0.00,512.00L0.06,395.79L0.25,358.68L0.56,331.72L0.99,309.80L1.54,291.00L2.22,274.38L3.03,259.40L3.96,245.70L5.01,233.05L6.19,221.26L7.50,210.22L8.94,199.82L10.50,189.99L12.19,180.67L14.01,171.80L15.96,163.34L18.04,155.26L20.26,147.53L22.61,140.12L25.10,133.01L27.72,126.19L30.48,119.64L33.39,113.33L36.44,107.27L39.63,101.44L42.97,95.82L46.46,90.41L50.10,85.21L53.90,80.20L57.86,75.38L61.99,70.74L66.28,66.28L70.74,61.99L75.38,57.86L80.20,53.90L85.21,50.10L90.41,46.46L95.82,42.97L101.44,39.63L107.27,36.44L113.33,33.39L119.64,30.48L126.19,27.72L133.01,25.10L140.12,22.61L147.53,20.26L155.26,18.04L163.34,15.96L171.80,14.01L180.67,12.19L189.99,10.50L199.82,8.94L210.22,7.50L221.26,6.19L233.05,5.01L245.70,3.96L259.40,3.03L274.38,2.22L291.00,1.54L309.80,0.99L331.72,0.56L358.68,0.25L395.79,0.06L512.00,0.00L628.21,0.06L665.32,0.25L692.28,0.56L714.20,0.99L733.00,1.54L749.62,2.22L764.60,3.03L778.30,3.96L790.95,5.01L802.74,6.19L813.78,7.50L824.18,8.94L834.01,10.50L843.33,12.19L852.20,14.01L860.66,15.96L868.74,18.04L876.47,20.26L883.88,22.61L890.99,25.10L897.81,27.72L904.36,30.48L910.67,33.39L916.73,36.44L922.56,39.63L928.18,42.97L933.59,46.46L938.79,50.10L943.80,53.90L948.62,57.86L953.26,61.99L957.72,66.28L962.01,70.74L966.14,75.38L970.10,80.20L973.90,85.21L977.54,90.41L981.03,95.82L984.37,101.44L987.56,107.27L990.61,113.33L993.52,119.64L996.28,126.19L998.90,133.01L1001.39,140.12L1003.74,147.53L1005.96,155.26L1008.04,163.34L1009.99,171.80L1011.81,180.67L1013.50,189.99L1015.06,199.82L1016.50,210.22L1017.81,221.26L1018.99,233.05L1020.04,245.70L1020.97,259.40L1021.78,274.38L1022.46,291.00L1023.01,309.80L1023.44,331.72L1023.75,358.68L1023.94,395.79Z" fill="#fcfcfc"/>
    <g fill="#27272a" stroke="#27272a" stroke-width="44"
       stroke-linejoin="round" stroke-linecap="round">
      <path d="M238.01749801590339 597.7939290894114H95.99999999999994V566.3304980672377H147.82525831576308V403.14925521901705H98.78657368425016V371.6858241968433H189.3688192752461V566.3304980672377H238.01749801590339Z"/>
      <path d="M336.8959347001993 601.2636704367086Q313.66076298782 601.2636704367086 296.64356216525687 592.4241126621251Q279.6263613426937 583.5845548875417 270.4121344272519 567.2417585185235Q261.19790751181 550.8989621495055 261.19790751181 528.6624699100489V503.401895168028Q261.19790751181 481.0659293937088 270.4121344272519 464.77286979212204Q279.6263613426937 448.4798101905352 296.64356216525687 439.64025241595175Q313.66076298782 430.8006946413683 336.8959347001993 430.8006946413683Q360.13110641257856 430.8006946413683 377.1483072351417 439.64025241595175Q394.16550805770487 448.4798101905352 403.3797349731467 464.77286979212204Q412.5939618885886 481.0659293937088 412.5939618885886 503.401895168028V528.6624699100489Q412.5939618885886 550.8989621495055 403.3797349731467 567.2417585185235Q394.16550805770487 583.5845548875417 377.1483072351417 592.4241126621251Q360.13110641257856 601.2636704367086 336.8959347001993 601.2636704367086ZM336.8959347001993 463.10241981532863Q320.78035162503664 463.10241981532863 311.41275267614594 474.4012070913948Q302.04515372725524 485.699994367461 302.04515372725524 505.1315070092802V526.9328580687967Q302.04515372725524 546.3643707106158 311.41275267614594 557.6631579866821Q320.78035162503664 568.9619452627483 336.8959347001993 568.9619452627483Q353.01151777536194 568.9619452627483 362.37911672425264 557.6631579866821Q371.74671567314334 546.3643707106158 371.74671567314334 526.9328580687967V505.1315070092802Q371.74671567314334 485.699994367461 362.37911672425264 474.4012070913948Q353.01151777536194 463.10241981532863 336.8959347001993 463.10241981532863Z"/>
      <path d="M508.2309630872079 601.2636704367086Q484.9957913748286 601.2636704367086 467.9785905522655 592.4241126621251Q450.9613897297023 583.5845548875417 441.7471628142605 567.2417585185235Q432.5329358988186 550.8989621495055 432.5329358988186 528.6624699100489V503.401895168028Q432.5329358988186 481.0659293937088 441.7471628142605 464.77286979212204Q450.9613897297023 448.4798101905352 467.9785905522655 439.64025241595175Q484.9957913748286 430.8006946413683 508.2309630872079 430.8006946413683Q531.4661347995872 430.8006946413683 548.4833356221503 439.64025241595175Q565.5005364447135 448.4798101905352 574.7147633601553 464.77286979212204Q583.9289902755972 481.0659293937088 583.9289902755972 503.401895168028V528.6624699100489Q583.9289902755972 550.8989621495055 574.7147633601553 567.2417585185235Q565.5005364447135 583.5845548875417 548.4833356221503 592.4241126621251Q531.4661347995872 601.2636704367086 508.2309630872079 601.2636704367086ZM508.2309630872079 463.10241981532863Q492.11538001204525 463.10241981532863 482.74778106315455 474.4012070913948Q473.38018211426385 485.699994367461 473.38018211426385 505.1315070092802V526.9328580687967Q473.38018211426385 546.3643707106158 482.74778106315455 557.6631579866821Q492.11538001204525 568.9619452627483 508.2309630872079 568.9619452627483Q524.3465461623705 568.9619452627483 533.7141451112612 557.6631579866821Q543.081744060152 546.3643707106158 543.081744060152 526.9328580687967V505.1315070092802Q543.081744060152 485.699994367461 533.7141451112612 474.4012070913948Q524.3465461623705 463.10241981532863 508.2309630872079 463.10241981532863Z"/>
      <path d="M698.3349365688586 431.6468770417494Q717.1030021691171 431.6468770417494 730.4449410341626 439.9651847893789Q743.7868798992081 448.2834925370083 750.864397877254 463.9829976996676Q757.9419158552998 479.6825028623268 757.9419158552998 501.9255686422789V530.2886640921413Q757.9419158552998 552.3831769238491 750.864397877254 568.1569585606305Q743.7868798992081 583.9307401974119 730.4449410341626 592.2490479450414Q717.1030021691171 600.5673556926708 698.3349365688586 600.5673556926708Q680.5563474848291 600.5673556926708 668.8246086978293 592.6894479573779Q657.0928699108293 584.8115402220849 653.0394344353477 570.1950689240713H649.9675872275008V652.3141758031568H606.633502640492V434.22135657528366H649.4741636774853V462.12126676140963H652.5460108853323Q656.7427404766618 447.305848393671 668.5494130918333 439.47636271771023Q680.3560857070049 431.6468770417494 698.3349365688586 431.6468770417494ZM682.1895504211325 465.9871523263423Q666.6668644308478 465.9871523263423 657.7959758022203 475.9682439425046Q648.9250871735927 485.9493355586669 648.9250871735927 503.29716280076906V530.0603582305208Q648.9250871735927 547.408185472623 657.7959758022203 557.3892770887853Q666.6668644308478 567.3703687049476 682.1895504211325 567.3703687049476Q697.7613158247989 567.3703687049476 706.6322044534264 557.3647373820945Q715.503093082054 547.3591060592413 715.503093082054 530.0603582305208V503.29716280076906Q715.503093082054 485.9493355586669 706.6322044534264 475.9682439425046Q697.7613158247989 465.9871523263423 682.1895504211325 465.9871523263423Z"/>
    </g>
    <g fill="#1b4ed8" stroke="#1b4ed8" stroke-width="44"
       stroke-linejoin="round" stroke-linecap="round">
      <path d="M928.0 649.9250610446412H773.8020397224501V614.8779533512178H928.0Z"/>
    </g>
  <path d="M1018.00,512.00L1017.94,626.84L1017.76,663.52L1017.45,690.16L1017.02,711.83L1016.47,730.41L1015.80,746.83L1015.01,761.64L1014.09,775.18L1013.05,787.68L1011.88,799.33L1010.59,810.24L1009.17,820.52L1007.63,830.23L1005.95,839.45L1004.15,848.22L1002.23,856.58L1000.17,864.56L997.98,872.20L995.65,879.52L993.20,886.55L990.60,893.29L987.87,899.77L985.00,906.00L981.99,911.99L978.84,917.75L975.53,923.30L972.08,928.64L968.48,933.79L964.73,938.74L960.81,943.50L956.74,948.09L952.50,952.50L948.09,956.74L943.50,960.81L938.74,964.73L933.79,968.48L928.64,972.08L923.30,975.53L917.75,978.84L911.99,981.99L906.00,985.00L899.77,987.87L893.29,990.60L886.55,993.20L879.52,995.65L872.20,997.98L864.56,1000.17L856.58,1002.23L848.22,1004.15L839.45,1005.95L830.23,1007.63L820.52,1009.17L810.24,1010.59L799.33,1011.88L787.68,1013.05L775.18,1014.09L761.64,1015.01L746.83,1015.80L730.41,1016.47L711.83,1017.02L690.16,1017.45L663.52,1017.76L626.84,1017.94L512.00,1018.00L397.16,1017.94L360.48,1017.76L333.84,1017.45L312.17,1017.02L293.59,1016.47L277.17,1015.80L262.36,1015.01L248.82,1014.09L236.32,1013.05L224.67,1011.88L213.76,1010.59L203.48,1009.17L193.77,1007.63L184.55,1005.95L175.78,1004.15L167.42,1002.23L159.44,1000.17L151.80,997.98L144.48,995.65L137.45,993.20L130.71,990.60L124.23,987.87L118.00,985.00L112.01,981.99L106.25,978.84L100.70,975.53L95.36,972.08L90.21,968.48L85.26,964.73L80.50,960.81L75.91,956.74L71.50,952.50L67.26,948.09L63.19,943.50L59.27,938.74L55.52,933.79L51.92,928.64L48.47,923.30L45.16,917.75L42.01,911.99L39.00,906.00L36.13,899.77L33.40,893.29L30.80,886.55L28.35,879.52L26.02,872.20L23.83,864.56L21.77,856.58L19.85,848.22L18.05,839.45L16.37,830.23L14.83,820.52L13.41,810.24L12.12,799.33L10.95,787.68L9.91,775.18L8.99,761.64L8.20,746.83L7.53,730.41L6.98,711.83L6.55,690.16L6.24,663.52L6.06,626.84L6.00,512.00L6.06,397.16L6.24,360.48L6.55,333.84L6.98,312.17L7.53,293.59L8.20,277.17L8.99,262.36L9.91,248.82L10.95,236.32L12.12,224.67L13.41,213.76L14.83,203.48L16.37,193.77L18.05,184.55L19.85,175.78L21.77,167.42L23.83,159.44L26.02,151.80L28.35,144.48L30.80,137.45L33.40,130.71L36.13,124.23L39.00,118.00L42.01,112.01L45.16,106.25L48.47,100.70L51.92,95.36L55.52,90.21L59.27,85.26L63.19,80.50L67.26,75.91L71.50,71.50L75.91,67.26L80.50,63.19L85.26,59.27L90.21,55.52L95.36,51.92L100.70,48.47L106.25,45.16L112.01,42.01L118.00,39.00L124.23,36.13L130.71,33.40L137.45,30.80L144.48,28.35L151.80,26.02L159.44,23.83L167.42,21.77L175.78,19.85L184.55,18.05L193.77,16.37L203.48,14.83L213.76,13.41L224.67,12.12L236.32,10.95L248.82,9.91L262.36,8.99L277.17,8.20L293.59,7.53L312.17,6.98L333.84,6.55L360.48,6.24L397.16,6.06L512.00,6.00L626.84,6.06L663.52,6.24L690.16,6.55L711.83,6.98L730.41,7.53L746.83,8.20L761.64,8.99L775.18,9.91L787.68,10.95L799.33,12.12L810.24,13.41L820.52,14.83L830.23,16.37L839.45,18.05L848.22,19.85L856.58,21.77L864.56,23.83L872.20,26.02L879.52,28.35L886.55,30.80L893.29,33.40L899.77,36.13L906.00,39.00L911.99,42.01L917.75,45.16L923.30,48.47L928.64,51.92L933.79,55.52L938.74,59.27L943.50,63.19L948.09,67.26L952.50,71.50L956.74,75.91L960.81,80.50L964.73,85.26L968.48,90.21L972.08,95.36L975.53,100.70L978.84,106.25L981.99,112.01L985.00,118.00L987.87,124.23L990.60,130.71L993.20,137.45L995.65,144.48L997.98,151.80L1000.17,159.44L1002.23,167.42L1004.15,175.78L1005.95,184.55L1007.63,193.77L1009.17,203.48L1010.59,213.76L1011.88,224.67L1013.05,236.32L1014.09,248.82L1015.01,262.36L1015.80,277.17L1016.47,293.59L1017.02,312.17L1017.45,333.84L1017.76,360.48L1017.94,397.16Z" fill="none" stroke="#e4e4e7" stroke-width="12"/>
</svg>
